<svg xmlns="http://www.w3.org/2000/svg" viewBox="0 0 241.64 78.09"><defs><style>.cls-1{fill:#ffe67d;}.cls-2{fill:none;}.cls-2,.cls-5,.cls-6,.cls-8{stroke:#231f20;stroke-miterlimit:10;}.cls-2,.cls-8{stroke-width:2px;}.cls-3,.cls-7{font-size:67.75px;font-family:MyriadPro-Regular, Myriad Pro;}.cls-3{fill:#fff200;}.cls-4{letter-spacing:-0.01em;}.cls-5{letter-spacing:0.01em;}.cls-6{letter-spacing:0em;}.cls-7{fill:#231f20;}.cls-8{fill:#fbb040;}</style></defs><g id="Layer_2" data-name="Layer 2"><g id="Layer_1-2" data-name="Layer 1"><path class="cls-1" d="M105,9.42c-10,7-24,8-35,4-21-10-46-12-68-4,2,15-1,30-1,45,0,4,1,8,1,12,8-5,18-8,27-5,25,6,51,16,76,5-3-15,2-30,1-45,0-4-1-8-1-12Z"/><path class="cls-2" d="M105,9.42c-10,7-24,8-35,4-21-10-46-12-68-4,2,15-1,30-1,45,0,4,1,8,1,12,8-5,18-8,27-5,25,6,51,16,76,5-3-15,2-30,1-45,0-4-1-8-1-12Z"/><text class="cls-3" transform="translate(25 61.15)"><tspan class="cls-4">T</tspan><tspan x="32.86" y="0">ic</tspan><tspan class="cls-5" x="79.06" y="0">K</tspan><tspan class="cls-6" x="116.45" y="0">ing</tspan></text><text class="cls-7" transform="translate(25 61.15)"><tspan class="cls-4">T</tspan><tspan x="32.86" y="0">ic</tspan></text><path class="cls-8" d="M215.45,31.17a88.05,88.05,0,0,1,14.92,4.65l9.36-24.7-15.15,8.4L221,5.91l-9,10.87-10.55-14-1.5,26.41A89.24,89.24,0,0,1,215.45,31.17Z"/></g></g></svg>